<svg width="79" height="18" viewBox="0 0 79 18" fill="none" xmlns="http://www.w3.org/2000/svg">
<path d="M39.5 0.5H78.5V13C78.5 15.4853 76.4853 17.5 74 17.5H39.5V0.5Z" fill="#F3EFE8" stroke="#423629"/>
<path d="M5 0.5H39.5V17.5H0.5V5C0.5 2.51472 2.51472 0.5 5 0.5Z" fill="#4B543B" stroke="#423629"/>
<path d="M49.166 11.1494C49.166 11.4098 49.1318 11.6361 49.0635 11.8281C48.9951 12.0202 48.8991 12.1862 48.7754 12.3262C48.6549 12.4629 48.5085 12.5752 48.3359 12.6631C48.1667 12.7477 47.9779 12.8161 47.7695 12.8682C47.5645 12.917 47.3447 12.9512 47.1104 12.9707C46.876 12.9902 46.6335 13 46.3828 13H41.5146V6.29102H46.2949C46.487 6.29102 46.679 6.29915 46.8711 6.31543C47.0664 6.33171 47.252 6.36263 47.4277 6.4082C47.6035 6.45052 47.7663 6.51074 47.916 6.58887C48.069 6.66699 48.2008 6.76953 48.3115 6.89648C48.4255 7.02344 48.5133 7.17643 48.5752 7.35547C48.6403 7.53451 48.6729 7.74609 48.6729 7.99023C48.6729 8.42643 48.5654 8.77311 48.3506 9.03027C48.1357 9.28418 47.7972 9.45345 47.335 9.53809C47.6605 9.56087 47.9388 9.61133 48.1699 9.68945C48.4043 9.76432 48.5947 9.86849 48.7412 10.002C48.8877 10.1322 48.9951 10.2933 49.0635 10.4854C49.1318 10.6742 49.166 10.8955 49.166 11.1494ZM46.9053 8.27832C46.9053 8.19368 46.8923 8.11393 46.8662 8.03906C46.8402 7.96094 46.793 7.89258 46.7246 7.83398C46.6562 7.77539 46.5635 7.72819 46.4463 7.69238C46.3291 7.65658 46.1794 7.63867 45.9971 7.63867H43.3262V8.89844H45.9971C46.1794 8.89844 46.3291 8.88216 46.4463 8.84961C46.5635 8.81706 46.6562 8.77311 46.7246 8.71777C46.793 8.66243 46.8402 8.59733 46.8662 8.52246C46.8923 8.44434 46.9053 8.36296 46.9053 8.27832ZM47.3252 10.9395C47.3252 10.7865 47.2992 10.6644 47.2471 10.5732C47.195 10.4788 47.1136 10.4072 47.0029 10.3584C46.8923 10.3063 46.749 10.2721 46.5732 10.2559C46.3975 10.2396 46.1875 10.2314 45.9434 10.2314H43.3262V11.6523H45.9434C46.1875 11.6523 46.3975 11.6442 46.5732 11.6279C46.749 11.6117 46.8923 11.5775 47.0029 11.5254C47.1136 11.4733 47.195 11.4017 47.2471 11.3105C47.2992 11.2161 47.3252 11.0924 47.3252 10.9395ZM58.3018 12.668C57.7516 12.8503 57.2015 12.9805 56.6514 13.0586C56.1045 13.14 55.5446 13.1807 54.9717 13.1807C54.2393 13.1807 53.5866 13.1025 53.0137 12.9463C52.444 12.7868 51.9639 12.5573 51.5732 12.2578C51.1826 11.9583 50.8848 11.5921 50.6797 11.1592C50.4746 10.7262 50.3721 10.2363 50.3721 9.68945C50.3721 9.18164 50.4746 8.71126 50.6797 8.27832C50.888 7.84212 51.181 7.46452 51.5586 7.14551C51.9395 6.82324 52.3984 6.57259 52.9355 6.39355C53.4727 6.21126 54.0716 6.12012 54.7324 6.12012C55.3411 6.12012 55.8978 6.20312 56.4023 6.36914C56.9102 6.5319 57.3447 6.77441 57.7061 7.09668C58.0706 7.41895 58.3522 7.81608 58.5508 8.28809C58.7526 8.76009 58.8535 9.30371 58.8535 9.91895V10.3682H52.2422C52.3008 10.5798 52.3968 10.7734 52.5303 10.9492C52.667 11.125 52.8509 11.2747 53.082 11.3984C53.3132 11.5221 53.5964 11.6182 53.9316 11.6865C54.2702 11.7549 54.6738 11.7891 55.1426 11.7891C55.4746 11.7891 55.8001 11.7695 56.1191 11.7305C56.4382 11.6882 56.736 11.6344 57.0127 11.5693C57.2894 11.501 57.5384 11.4261 57.7598 11.3447C57.9844 11.2633 58.165 11.182 58.3018 11.1006V12.668ZM57.0518 9.04004C57.0355 8.87402 56.985 8.70312 56.9004 8.52734C56.819 8.34831 56.6888 8.18717 56.5098 8.04395C56.3307 7.90072 56.0964 7.78353 55.8066 7.69238C55.5169 7.59798 55.1556 7.55078 54.7227 7.55078C54.3158 7.55078 53.9642 7.60124 53.668 7.70215C53.3717 7.80306 53.1227 7.92839 52.9209 8.07812C52.7223 8.22786 52.5677 8.389 52.457 8.56152C52.3464 8.73405 52.2747 8.89355 52.2422 9.04004H57.0518ZM66.8906 13V9.24023C66.8906 8.98958 66.8695 8.76335 66.8271 8.56152C66.7848 8.35645 66.7051 8.18229 66.5879 8.03906C66.474 7.89258 66.3128 7.78027 66.1045 7.70215C65.8994 7.62077 65.6341 7.58008 65.3086 7.58008C65.0612 7.58008 64.8008 7.61426 64.5273 7.68262C64.2572 7.74772 63.9886 7.83561 63.7217 7.94629C63.4548 8.05697 63.1992 8.18555 62.9551 8.33203C62.7142 8.47852 62.4993 8.63151 62.3105 8.79102V13H60.499V6.29102H62.3105V7.20898C62.5384 7.07878 62.7809 6.9502 63.0381 6.82324C63.2952 6.69303 63.5687 6.57585 63.8584 6.47168C64.1481 6.36751 64.4557 6.28288 64.7812 6.21777C65.1068 6.15267 65.4502 6.12012 65.8115 6.12012C66.264 6.12012 66.6676 6.17546 67.0225 6.28613C67.3805 6.39355 67.6833 6.54818 67.9307 6.75C68.1781 6.94857 68.3669 7.19108 68.4971 7.47754C68.6305 7.76074 68.6973 8.07812 68.6973 8.42969V13H66.8906ZM74.5322 7.75098V13H72.7207V7.75098H69.874V6.29102H77.3838V7.75098H74.5322Z" fill="#423629"/>
<path d="M13.5986 12.541C13.3643 12.6387 13.1283 12.7266 12.8906 12.8047C12.653 12.8828 12.4072 12.9495 12.1533 13.0049C11.8994 13.0635 11.6309 13.1074 11.3477 13.1367C11.0677 13.166 10.7666 13.1807 10.4443 13.1807C9.76074 13.1807 9.13086 13.1074 8.55469 12.9609C7.98177 12.8145 7.48698 12.5947 7.07031 12.3018C6.6569 12.0055 6.33464 11.6377 6.10352 11.1982C5.8724 10.7555 5.75684 10.2396 5.75684 9.65039C5.75684 9.0612 5.8724 8.54688 6.10352 8.10742C6.33464 7.66471 6.6569 7.29688 7.07031 7.00391C7.48698 6.70768 7.98177 6.48633 8.55469 6.33984C9.13086 6.19336 9.76074 6.12012 10.4443 6.12012C10.7666 6.12012 11.0677 6.13477 11.3477 6.16406C11.6309 6.19336 11.8994 6.2373 12.1533 6.2959C12.4072 6.35124 12.653 6.41797 12.8906 6.49609C13.1283 6.57422 13.3643 6.66211 13.5986 6.75977V8.39062C13.4131 8.28971 13.2178 8.19043 13.0127 8.09277C12.8076 7.99186 12.5814 7.90234 12.334 7.82422C12.0866 7.74284 11.8148 7.67773 11.5186 7.62891C11.2223 7.57682 10.8887 7.55078 10.5176 7.55078C9.94792 7.55078 9.47428 7.60938 9.09668 7.72656C8.72233 7.84375 8.42285 8 8.19824 8.19531C7.97363 8.39062 7.81576 8.61523 7.72461 8.86914C7.63346 9.11979 7.58789 9.38021 7.58789 9.65039C7.58789 9.82943 7.60742 10.0068 7.64648 10.1826C7.68555 10.3551 7.75065 10.5195 7.8418 10.6758C7.93294 10.8288 8.05176 10.9704 8.19824 11.1006C8.34473 11.2308 8.52702 11.3431 8.74512 11.4375C8.96322 11.5319 9.21712 11.6068 9.50684 11.6621C9.7998 11.7142 10.1367 11.7402 10.5176 11.7402C10.8887 11.7402 11.2223 11.7174 11.5186 11.6719C11.8148 11.623 12.0866 11.5596 12.334 11.4814C12.5814 11.4033 12.8076 11.3154 13.0127 11.2178C13.2178 11.1169 13.4131 11.0143 13.5986 10.9102V12.541ZM23.9697 9.65039C23.9697 10.2266 23.8639 10.736 23.6523 11.1787C23.4408 11.6182 23.138 11.986 22.7441 12.2822C22.3503 12.5785 21.8717 12.8031 21.3086 12.9561C20.7487 13.1058 20.1188 13.1807 19.4189 13.1807C18.7191 13.1807 18.0859 13.1058 17.5195 12.9561C16.9564 12.8031 16.4762 12.5785 16.0791 12.2822C15.682 11.986 15.376 11.6182 15.1611 11.1787C14.9463 10.736 14.8389 10.2266 14.8389 9.65039C14.8389 9.07422 14.9463 8.56641 15.1611 8.12695C15.376 7.68424 15.682 7.31478 16.0791 7.01855C16.4762 6.72233 16.9564 6.49935 17.5195 6.34961C18.0859 6.19661 18.7191 6.12012 19.4189 6.12012C20.1188 6.12012 20.7487 6.19661 21.3086 6.34961C21.8717 6.49935 22.3503 6.72233 22.7441 7.01855C23.138 7.31478 23.4408 7.68424 23.6523 8.12695C23.8639 8.56641 23.9697 9.07422 23.9697 9.65039ZM22.1387 9.65039C22.1387 9.39974 22.098 9.15072 22.0166 8.90332C21.9385 8.65267 21.7969 8.42806 21.5918 8.22949C21.39 8.03092 21.1133 7.86979 20.7617 7.74609C20.4102 7.6224 19.9626 7.56055 19.4189 7.56055C19.0544 7.56055 18.7337 7.58984 18.457 7.64844C18.1803 7.70378 17.9411 7.7819 17.7393 7.88281C17.5374 7.98372 17.3682 8.10254 17.2314 8.23926C17.0947 8.37272 16.9857 8.51758 16.9043 8.67383C16.8229 8.82682 16.7643 8.98796 16.7285 9.15723C16.696 9.32324 16.6797 9.48763 16.6797 9.65039C16.6797 9.81641 16.696 9.98405 16.7285 10.1533C16.7643 10.3226 16.8229 10.4854 16.9043 10.6416C16.9857 10.7946 17.0947 10.9378 17.2314 11.0713C17.3682 11.2048 17.5374 11.3219 17.7393 11.4229C17.9411 11.5205 18.1803 11.5986 18.457 11.6572C18.7337 11.7126 19.0544 11.7402 19.4189 11.7402C19.9626 11.7402 20.4102 11.6784 20.7617 11.5547C21.1133 11.431 21.39 11.2699 21.5918 11.0713C21.7969 10.8727 21.9385 10.6497 22.0166 10.4023C22.098 10.1517 22.1387 9.90104 22.1387 9.65039ZM32.0117 13V9.24023C32.0117 8.98958 31.9906 8.76335 31.9482 8.56152C31.9059 8.35645 31.8262 8.18229 31.709 8.03906C31.5951 7.89258 31.4339 7.78027 31.2256 7.70215C31.0205 7.62077 30.7552 7.58008 30.4297 7.58008C30.1823 7.58008 29.9219 7.61426 29.6484 7.68262C29.3783 7.74772 29.1097 7.83561 28.8428 7.94629C28.5758 8.05697 28.3203 8.18555 28.0762 8.33203C27.8353 8.47852 27.6204 8.63151 27.4316 8.79102V13H25.6201V6.29102H27.4316V7.20898C27.6595 7.07878 27.902 6.9502 28.1592 6.82324C28.4163 6.69303 28.6898 6.57585 28.9795 6.47168C29.2692 6.36751 29.5768 6.28288 29.9023 6.21777C30.2279 6.15267 30.5713 6.12012 30.9326 6.12012C31.3851 6.12012 31.7887 6.17546 32.1436 6.28613C32.5016 6.39355 32.8044 6.54818 33.0518 6.75C33.2992 6.94857 33.488 7.19108 33.6182 7.47754C33.7516 7.76074 33.8184 8.07812 33.8184 8.42969V13H32.0117Z" fill="#F3EFE8"/>
</svg>
