<svg width="51" height="41" viewBox="0 0 51 41" fill="none" xmlns="http://www.w3.org/2000/svg">
<path d="M12.7855 34.472V24.68C12.7855 23.912 12.6575 23.4213 12.4015 23.208C12.1882 22.952 11.6975 22.824 10.9295 22.824H6.1935C2.31083 22.824 0.3695 20.9253 0.3695 17.128V6.568C0.3695 2.81333 2.3535 0.935997 6.3215 0.935997H12.5935C16.5615 0.935997 18.5455 2.81333 18.5455 6.568V12.456H12.7215V7.464C12.7215 6.696 12.5935 6.20533 12.3375 5.992C12.0815 5.736 11.5695 5.608 10.8015 5.608H8.1135C7.3455 5.608 6.8335 5.736 6.5775 5.992C6.3215 6.20533 6.1935 6.696 6.1935 7.464V16.36C6.1935 17.128 6.3215 17.64 6.5775 17.896C6.8335 18.1093 7.3455 18.216 8.1135 18.216H12.7855C16.7108 18.216 18.6735 20.0933 18.6735 23.848V35.368C18.6735 39.1227 16.6682 41 12.6575 41H6.4495C2.4815 41 0.4975 39.1227 0.4975 35.368V29.48H6.3215V34.472C6.3215 35.24 6.4495 35.752 6.7055 36.008C6.9615 36.2213 7.4735 36.328 8.2415 36.328H10.9295C11.6975 36.328 12.1882 36.2213 12.4015 36.008C12.6575 35.752 12.7855 35.24 12.7855 34.472ZM29.4465 41H24.3905V0.935997H30.7265L37.5745 25.768L44.4225 0.935997H50.7585V41H45.7025V11.688L40.1985 32.296H34.9505L29.4465 11.752V41Z" fill="url(#paint0_linear_1309_320)"/>
<path d="M12.4015 23.208L12.0174 23.5281L12.0465 23.563L12.0814 23.5921L12.4015 23.208ZM18.5455 12.456V12.956H19.0455V12.456H18.5455ZM12.7215 12.456H12.2215V12.956H12.7215V12.456ZM12.3375 5.992L11.9839 6.34555L12 6.36159L12.0174 6.37611L12.3375 5.992ZM6.5775 5.992L6.89759 6.37611L6.91502 6.36159L6.93105 6.34555L6.5775 5.992ZM6.5775 17.896L6.22395 18.2496L6.23998 18.2656L6.25741 18.2801L6.5775 17.896ZM0.4975 29.48V28.98H-0.00249982V29.48H0.4975ZM6.3215 29.48H6.8215V28.98H6.3215V29.48ZM6.7055 36.008L6.35195 36.3616L6.36798 36.3776L6.38541 36.3921L6.7055 36.008ZM12.4015 36.008L12.7551 36.3616L12.7551 36.3616L12.4015 36.008ZM13.2855 34.472V24.68H12.2855V34.472H13.2855ZM13.2855 24.68C13.2855 24.2729 13.2521 23.9117 13.1733 23.6098C13.0959 23.313 12.9617 23.024 12.7216 22.8239L12.0814 23.5921C12.0973 23.6054 12.1551 23.6683 12.2057 23.8622C12.2549 24.051 12.2855 24.3191 12.2855 24.68H13.2855ZM12.7856 22.8879C12.5855 22.6478 12.2965 22.5136 11.9997 22.4362C11.6978 22.3574 11.3366 22.324 10.9295 22.324V23.324C11.2904 23.324 11.5585 23.3546 11.7473 23.4038C11.9412 23.4544 12.0041 23.5122 12.0174 23.5281L12.7856 22.8879ZM10.9295 22.324H6.1935V23.324H10.9295V22.324ZM6.1935 22.324C4.32648 22.324 3.01859 21.8675 2.1751 21.0425C1.33368 20.2196 0.8695 18.9467 0.8695 17.128H-0.1305C-0.1305 19.1066 0.375988 20.6817 1.4759 21.7575C2.57375 22.8312 4.17785 23.324 6.1935 23.324V22.324ZM0.8695 17.128V6.568H-0.1305V17.128H0.8695ZM0.8695 6.568C0.8695 4.77501 1.34187 3.52027 2.20116 2.70718C3.06563 1.88918 4.40789 1.436 6.3215 1.436V0.435997C4.26711 0.435997 2.63337 0.921476 1.51384 1.98082C0.389135 3.04506 -0.1305 4.60632 -0.1305 6.568H0.8695ZM6.3215 1.436H12.5935V0.435997H6.3215V1.436ZM12.5935 1.436C14.5071 1.436 15.8494 1.88918 16.7138 2.70718C17.5731 3.52027 18.0455 4.77501 18.0455 6.568H19.0455C19.0455 4.60632 18.5259 3.04506 17.4012 1.98082C16.2816 0.921476 14.6479 0.435997 12.5935 0.435997V1.436ZM18.0455 6.568V12.456H19.0455V6.568H18.0455ZM18.5455 11.956H12.7215V12.956H18.5455V11.956ZM13.2215 12.456V7.464H12.2215V12.456H13.2215ZM13.2215 7.464C13.2215 7.05685 13.1881 6.69565 13.1093 6.39379C13.0319 6.09701 12.8977 5.80795 12.6576 5.60789L12.0174 6.37611C12.0333 6.38938 12.0911 6.45231 12.1417 6.64621C12.1909 6.83501 12.2215 7.10314 12.2215 7.464H13.2215ZM12.6911 5.63844C12.4761 5.42351 12.1889 5.29546 11.8828 5.21893C11.5736 5.14164 11.2096 5.108 10.8015 5.108V6.108C11.1614 6.108 11.4374 6.13836 11.6402 6.18907C11.8461 6.24054 11.9429 6.30449 11.9839 6.34555L12.6911 5.63844ZM10.8015 5.108H8.1135V6.108H10.8015V5.108ZM8.1135 5.108C7.70537 5.108 7.34138 5.14164 7.03223 5.21893C6.72611 5.29546 6.43888 5.42351 6.22395 5.63844L6.93105 6.34555C6.97212 6.30449 7.06889 6.24054 7.27477 6.18907C7.47762 6.13836 7.75363 6.108 8.1135 6.108V5.108ZM6.25741 5.60789C6.01733 5.80795 5.88311 6.09701 5.80569 6.39379C5.72694 6.69565 5.6935 7.05685 5.6935 7.464H6.6935C6.6935 7.10314 6.72406 6.83501 6.77331 6.64621C6.82389 6.45231 6.88167 6.38938 6.89759 6.37611L6.25741 5.60789ZM5.6935 7.464V16.36H6.6935V7.464H5.6935ZM5.6935 16.36C5.6935 16.7681 5.72714 17.1321 5.80443 17.4413C5.88096 17.7474 6.00901 18.0346 6.22395 18.2496L6.93105 17.5424C6.88999 17.5014 6.82604 17.4046 6.77457 17.1987C6.72386 16.9959 6.6935 16.7199 6.6935 16.36H5.6935ZM6.25741 18.2801C6.47431 18.4609 6.75656 18.564 7.05152 18.6255C7.35268 18.6882 7.70959 18.716 8.1135 18.716V17.716C7.74941 17.716 7.46632 17.6904 7.25548 17.6465C7.03844 17.6013 6.93669 17.5445 6.89759 17.5119L6.25741 18.2801ZM8.1135 18.716H12.7855V17.716H8.1135V18.716ZM12.7855 18.716C14.6765 18.716 16.002 19.1686 16.8559 19.9853C17.7056 20.7981 18.1735 22.0535 18.1735 23.848H19.1735C19.1735 21.8878 18.66 20.3272 17.5471 19.2627C16.4383 18.2021 14.8198 17.716 12.7855 17.716V18.716ZM18.1735 23.848V35.368H19.1735V23.848H18.1735ZM18.1735 35.368C18.1735 37.1595 17.6967 38.4136 16.8278 39.227C15.9527 40.0462 14.5937 40.5 12.6575 40.5V41.5C14.732 41.5 16.3809 41.0151 17.5112 39.957C18.6477 38.8931 19.1735 37.3312 19.1735 35.368H18.1735ZM12.6575 40.5H6.4495V41.5H12.6575V40.5ZM6.4495 40.5C4.53589 40.5 3.19363 40.0468 2.32916 39.2288C1.46987 38.4157 0.9975 37.161 0.9975 35.368H-0.00249982C-0.00249982 37.3297 0.517135 38.8909 1.64184 39.9552C2.76137 41.0145 4.39511 41.5 6.4495 41.5V40.5ZM0.9975 35.368V29.48H-0.00249982V35.368H0.9975ZM0.4975 29.98H6.3215V28.98H0.4975V29.98ZM5.8215 29.48V34.472H6.8215V29.48H5.8215ZM5.8215 34.472C5.8215 34.8801 5.85514 35.2441 5.93243 35.5533C6.00896 35.8594 6.13701 36.1466 6.35195 36.3616L7.05905 35.6544C7.01799 35.6134 6.95404 35.5166 6.90257 35.3107C6.85186 35.1079 6.8215 34.8319 6.8215 34.472H5.8215ZM6.38541 36.3921C6.60231 36.5729 6.88456 36.676 7.17952 36.7375C7.48068 36.8002 7.83759 36.828 8.2415 36.828V35.828C7.87741 35.828 7.59432 35.8024 7.38348 35.7585C7.16644 35.7133 7.06469 35.6565 7.02559 35.6239L6.38541 36.3921ZM8.2415 36.828H10.9295V35.828H8.2415V36.828ZM10.9295 36.828C11.3326 36.828 11.6863 36.8004 11.9797 36.7366C12.263 36.675 12.5492 36.5674 12.7551 36.3616L12.0479 35.6544C12.0405 35.6619 11.9747 35.7143 11.7673 35.7594C11.57 35.8023 11.2944 35.828 10.9295 35.828V36.828ZM12.7551 36.3616C12.97 36.1466 13.098 35.8594 13.1746 35.5533C13.2519 35.2441 13.2855 34.8801 13.2855 34.472H12.2855C12.2855 34.8319 12.2551 35.1079 12.2044 35.3107C12.153 35.5166 12.089 35.6134 12.0479 35.6544L12.7551 36.3616ZM29.4465 41V41.5H29.9465V41H29.4465ZM24.3905 41H23.8905V41.5H24.3905V41ZM24.3905 0.935997V0.435997H23.8905V0.935997H24.3905ZM30.7265 0.935997L31.2085 0.803072L31.1073 0.435997H30.7265V0.935997ZM37.5745 25.768L37.0925 25.9009L37.5745 27.6488L38.0565 25.9009L37.5745 25.768ZM44.4225 0.935997V0.435997H44.0417L43.9405 0.803072L44.4225 0.935997ZM50.7585 0.935997H51.2585V0.435997H50.7585V0.935997ZM50.7585 41V41.5H51.2585V41H50.7585ZM45.7025 41H45.2025V41.5H45.7025V41ZM45.7025 11.688H46.2025L45.2194 11.559L45.7025 11.688ZM40.1985 32.296V32.796H40.5825L40.6816 32.425L40.1985 32.296ZM34.9505 32.296L34.4675 32.4254L34.5668 32.796H34.9505V32.296ZM29.4465 11.752L29.9295 11.6226L28.9465 11.752H29.4465ZM29.4465 40.5H24.3905V41.5H29.4465V40.5ZM24.8905 41V0.935997H23.8905V41H24.8905ZM24.3905 1.436H30.7265V0.435997H24.3905V1.436ZM30.2445 1.06892L37.0925 25.9009L38.0565 25.6351L31.2085 0.803072L30.2445 1.06892ZM38.0565 25.9009L44.9045 1.06892L43.9405 0.803072L37.0925 25.6351L38.0565 25.9009ZM44.4225 1.436H50.7585V0.435997H44.4225V1.436ZM50.2585 0.935997V41H51.2585V0.935997H50.2585ZM50.7585 40.5H45.7025V41.5H50.7585V40.5ZM46.2025 41V11.688H45.2025V41H46.2025ZM45.2194 11.559L39.7154 32.167L40.6816 32.425L46.1856 11.817L45.2194 11.559ZM40.1985 31.796H34.9505V32.796H40.1985V31.796ZM35.4335 32.1666L29.9295 11.6226L28.9635 11.8814L34.4675 32.4254L35.4335 32.1666ZM28.9465 11.752V41H29.9465V11.752H28.9465Z" fill="black"/>
<defs>
<linearGradient id="paint0_linear_1309_320" x1="56" y1="11" x2="-4.20138" y2="11.4097" gradientUnits="userSpaceOnUse">
<stop stop-color="#EF5DA8"/>
<stop offset="1" stop-color="#5D5FEF"/>
</linearGradient>
</defs>
</svg>
