<svg width="52" height="47" viewBox="0 0 52 47" fill="none" xmlns="http://www.w3.org/2000/svg">
<rect width="52" height="47" rx="2" fill="#1C3C2F"/>
<rect x="4" y="4" width="8" height="10" fill="#E5D7BD"/>
<rect x="40" y="4" width="8" height="10" fill="#E5D7BD"/>
<rect x="21" y="4" width="1" height="30" fill="#E5D7BD"/>
<rect x="22" y="5" width="8" height="29" fill="black"/>
<rect x="4" y="15" width="17" height="1" fill="#E5D7BD"/>
<rect x="4" y="25" width="44" height="1" fill="#E5D7BD"/>
<rect x="4" y="25" width="8" height="9" fill="#E5D7BD"/>
<rect x="30" y="15" width="18" height="1" fill="#E5D7BD"/>
<rect x="40" y="15" width="8" height="19" fill="#E5D7BD"/>
<rect x="4" y="4" width="44" height="1" fill="#E5D7BD"/>
<rect x="30" y="15" width="1" height="19" fill="#E5D7BD"/>
<rect x="9" y="43" width="4" height="1" fill="#E5D7BD"/>
<rect x="9" y="37" width="1" height="7" fill="#E5D7BD"/>
<rect x="9" y="37" width="4" height="1" fill="#E5D7BD"/>
<rect x="14" y="39" width="4" height="1" fill="#E5D7BD"/>
<rect x="17" y="39" width="1" height="5" fill="#E5D7BD"/>
<rect x="14" y="39" width="1" height="5" fill="#E5D7BD"/>
<rect x="14" y="43" width="4" height="1" fill="#E5D7BD"/>
<rect x="19" y="39" width="1" height="5" fill="#E5D7BD"/>
<rect x="19" y="39" width="4" height="1" fill="#E5D7BD"/>
<rect x="22" y="39" width="1" height="5" fill="#E5D7BD"/>
<rect x="24" y="37" width="1" height="7" fill="#E5D7BD"/>
<rect x="24" y="39" width="4" height="1" fill="#E5D7BD"/>
<rect x="27" y="39" width="1" height="5" fill="#E5D7BD"/>
<rect x="24" y="43" width="4" height="1" fill="#E5D7BD"/>
<rect x="29" y="39" width="4" height="1" fill="#E5D7BD"/>
<rect x="32" y="39" width="1" height="3" fill="#E5D7BD"/>
<rect x="29" y="39" width="1" height="5" fill="#E5D7BD"/>
<rect x="29" y="43" width="4" height="1" fill="#E5D7BD"/>
<rect x="29" y="41" width="4" height="1" fill="#E5D7BD"/>
<rect x="34" y="39" width="4" height="1" fill="#E5D7BD"/>
<rect x="37" y="39" width="1" height="5" fill="#E5D7BD"/>
<rect x="34" y="39" width="1" height="5" fill="#E5D7BD"/>
<rect x="40" y="37" width="1" height="7" fill="#E5D7BD"/>
<rect x="39" y="39" width="4" height="1" fill="#E5D7BD"/>
<rect x="40" y="43" width="3" height="1" fill="#E5D7BD"/>
</svg>
